<?xml version="1.0" encoding="UTF-8"?>
<svg width="18px" height="18px" viewBox="0 0 18 18" version="1.1" xmlns="http://www.w3.org/2000/svg" xmlns:xlink="http://www.w3.org/1999/xlink">
    <!-- Generator: Sketch 54.1 (76490) - https://sketchapp.com -->
    <title>bell</title>
    <desc>Created with Sketch.</desc>
    <g id="App-flow" stroke="none" stroke-width="1" fill="none" fill-rule="evenodd" stroke-linecap="round" stroke-linejoin="round">
        <g id="Artboard" transform="translate(-331.000000, -27.000000)" stroke="#323643" stroke-width="2">
            <g id="Group-7">
                <g id="Group" transform="translate(13.000000, 28.000000)">
                    <g id="bell" transform="translate(319.000000, 0.000000)">
                        <path d="M16,12.0000001 L0,12.0000001 C1.3254834,12 2.4,10.9254834 2.4,9.6 L2.4,5.6 C2.40000005,2.50720543 4.90720543,8.34465016e-08 8,8.3446502e-08 C11.0927946,8.34465023e-08 13.6,2.50720543 13.6,5.6 L13.6,9.6 C13.6,10.9254834 14.6745166,12 16,12.0000001 L16,12.0000001 Z M9.384,15.2 C9.09776179,15.6934435 8.57045489,15.997165 8,15.997165 C7.42954511,15.997165 6.90223821,15.6934435 6.616,15.2 L9.384,15.2 Z" id="Shape"></path>
                    </g>
                </g>
            </g>
        </g>
    </g>
</svg>