<?xml version="1.0" encoding="UTF-8"?>
<svg width="300px" height="30px" viewBox="0 0 300 30" version="1.1" xmlns="http://www.w3.org/2000/svg" xmlns:xlink="http://www.w3.org/1999/xlink">
    <!-- Generator: Sketch 54.1 (76490) - https://sketchapp.com -->
    <title>Group 3</title>
    <desc>Created with Sketch.</desc>
    <defs>
        <linearGradient x1="45.7978754%" y1="38.1145791%" x2="50%" y2="63.8938692%" id="linearGradient-1">
            <stop stop-color="#61B72F" offset="0%"></stop>
            <stop stop-color="#25A624" offset="100%"></stop>
        </linearGradient>
    </defs>
    <g id="App-flow" stroke="none" stroke-width="1" fill="none" fill-rule="evenodd">
        <g id="Artboard" transform="translate(-31.000000, -356.000000)">
            <g id="Group-7">
                <g id="Group-4" transform="translate(13.000000, 306.000000)">
                    <g id="Group-3" transform="translate(18.000000, 50.000000)">
                        <rect id="Rectangle" fill="#8E95A0" x="0" y="0" width="300" height="30" rx="15"></rect>
                        <path d="M24.8349495,5 C23.7483872,5 22.8646168,5.88369286 22.8646168,6.97027143 C22.8649168,8.06362143 23.7486784,8.94054286 24.8349495,8.94054286 C25.9282937,8.94054286 26.8144271,8.06362143 26.8144271,6.97027143 C26.8144271,5.88369286 25.9282937,5 24.8349495,5 Z M24.5415351,9.51986429 L24.2169887,9.51986429 L24.5493347,9.51986429 C24.5467347,9.51985118 24.5441347,9.51985118 24.5415347,9.51986429 L24.5415351,9.51986429 Z M24.2135301,9.51986429 L23.6935502,9.52200714 C23.6935502,9.52200714 23.6935502,9.52200714 23.6935502,9.52200714 C23.037441,9.52200714 22.3003221,9.69575 21.7545898,9.98803571 L21.7567519,9.98803571 C20.5743195,10.6415857 19.790295,11.2311071 19.29834,12.0487786 C18.7150688,13.0182286 18.6612585,14.1161643 18.6657767,15.6258521 C18.6625639,15.9048488 18.8098642,16.1639507 19.051246,16.3038946 C19.2926278,16.4438384 19.590672,16.44293 19.8311963,16.3015174 C20.0717205,16.1601048 20.2174387,15.9001097 20.2125253,15.6211379 C20.2081538,14.1614879 20.2928207,13.3960571 20.6236776,12.8461357 C20.8764581,12.4260071 21.3451523,12.0188 22.2254854,11.5030786 L21.5145302,14.901845 L21.4546043,15.188345 C21.4545953,15.1883664 21.4546103,15.188345 21.4546043,15.188345 C21.3638466,15.6223593 21.4244059,15.9502807 21.6666878,16.3258164 L23.0114372,18.4101307 L23.3920397,18.999995 L26.467242,23.7663736 C26.6784309,24.1044212 27.0553191,24.3025228 27.4535179,24.2847842 C27.8517168,24.2670456 28.2094973,24.0362166 28.3897913,23.6807295 C28.5700853,23.3252424 28.5449434,22.9002051 28.3239977,22.5684521 L24.1955239,16.1696021 L24.5718484,14.5988236 L24.8473761,13.4489214 L25.4218871,11.0511929 C25.4218871,11.0511929 25.4218871,11.0511929 25.4221871,11.0511929 C25.6114661,10.2561286 24.9694099,9.52205 24.213942,9.52155714 L24.213642,9.52155714 L24.2135301,9.51986429 Z M25.8230175,11.9526071 L25.320627,14.0494143 C25.3445151,14.0741857 25.3687005,14.0987214 25.3933361,14.1228714 C26.2009483,14.9152164 27.2563693,15.2223307 28.7258908,15.5683164 C28.9964518,15.6360237 29.2825111,15.5528235 29.4745537,15.3505681 C29.6665963,15.1483128 29.7348763,14.85833 29.6532535,14.5916368 C29.5716307,14.3249435 29.3527478,14.1228484 29.0804018,14.0627214 C27.6595751,13.7282214 26.9346778,13.4681643 26.476569,13.0187214 C26.237091,12.7837571 26.0270642,12.4509286 25.8230175,11.9526071 L25.8230175,11.9526071 Z M21.1518137,16.6345379 L20.4645454,19.9203093 L18.2799587,22.4432664 C18.0148804,22.7407934 17.9305372,23.1580014 18.0592258,23.5351327 C18.1879144,23.912264 18.509697,24.1908896 18.9013565,24.2643178 C19.2930159,24.337746 19.693872,24.1946006 19.9504288,23.889695 L22.3276926,21.1442664 C22.4539133,20.998485 22.5397853,20.8222096 22.5767743,20.6329593 L22.8452678,19.259195 L21.1518137,16.6345379 L21.1518137,16.6345379 Z" id="Shape" fill="#FFFFFF" fill-rule="nonzero"></path>
                        <rect id="Rectangle" fill="#F7B500" x="41" y="0" width="175" height="30" rx="15"></rect>
                        <path d="M216,0 L285,0 C293.284271,-1.52179594e-15 300,6.71572875 300,15 L300,15 C300,23.2842712 293.284271,30 285,30 L216,30 L216,0 Z" id="Rectangle" fill="url(#linearGradient-1)"></path>
                        <g id="noun_Auto-Rickshaw_21865" transform="translate(257.750000, 15.500000) scale(-1, 1) translate(-257.750000, -15.500000) translate(245.250000, 7.000000)" fill="#FFFFFF" fill-rule="nonzero">
                            <g id="Group">
                                <circle id="Oval" cx="2.04775" cy="14.83875" r="1.9785"></circle>
                                <circle id="Oval" cx="21.25175" cy="14.83875" r="1.9785"></circle>
                                <path d="M18.422,0.1625 C12.172,0.1625 6.41875,0.26225 5.72425,1.25425 C5.02975,2.246 2.818,5.519 2.88225,7.8505 L2.88225,9.68625 C2.88225,9.68625 0.89025,9.7015 1.161,11.33 C1.161,11.33 5.4265,12.05575 5.22825,14.83925 L18.32225,14.83925 C18.32225,14.83925 19.0225,12.06675 21.25175,12.06675 C23.481,12.06675 24.076,13.702 24.076,13.702 L24.076,4.188 C24.076,4.188 24.67175,0.1625 18.422,0.1625 Z M6.71575,9.02125 L4.02575,9.02125 L3.4425,9.02125 C3.236,5.79125 6.04,2.147 6.04,2.147 L6.71575,2.147 L6.71575,9.02125 L6.71575,9.02125 Z M19.54175,9.756 C18.777,9.756 18.71925,10.5785 18.71925,10.5785 L17.43,13.59775 C14.3625,14.18525 14.25525,12.8605 14.25525,12.8605 L14.25525,10.60725 C14.269,10.54925 14.278,10.4885 14.278,10.42675 L14.278,6.703 C14.278,6.25975 13.91825,5.9005 13.475,5.9005 C13.03175,5.9005 12.672,6.26 12.672,6.703 L12.672,9.259 C12.6245,9.3815 12.596,9.50625 12.584,9.6235 L10.83075,9.6235 C10.38725,9.6235 10.028,9.983 10.028,10.42675 C10.028,10.8695 10.3875,11.2295 10.83075,11.2295 L12.61325,11.2295 L12.61325,13.70225 L8.0055,13.70225 L8.0055,2.246 L19.54175,2.246 L19.54175,9.756 Z" id="Shape"></path>
                            </g>
                        </g>
                        <g id="noun_Subway_809354" transform="translate(121.000000, 6.000000)" fill="#FFFFFF" fill-rule="nonzero">
                            <path d="M3.62152381,15.5053333 C5.08095238,15.5078095 6.54057143,15.5059048 8,15.5060952 C9.45942857,15.5059048 10.9190476,15.5078095 12.3784762,15.5053333 C14.6342857,15.5013333 16.188381,13.5881905 15.7620952,11.3685714 C15.1815238,8.34647619 14.6158095,5.32152381 14.0489524,2.29695238 C13.804381,0.991809524 12.7325714,0.0411428571 11.4100952,0.0335238095 L4.58990476,0.0335238095 C3.26761905,0.0411428571 2.19580952,0.991809524 1.95104762,2.29714286 C1.384,5.32171429 0.81847619,8.34666667 0.237904762,11.3687619 C-0.188380952,13.5881905 1.36571429,15.5015238 3.62152381,15.5053333 Z M13.7011429,12.4550476 C13.6994286,13.1220952 13.1691429,13.6411429 12.495619,13.6346667 C11.8321905,13.6287619 11.3129524,13.0910476 11.3232381,12.420381 C11.3331429,11.7672381 11.8615238,11.2512381 12.5177143,11.2537143 C13.1872381,11.256381 13.7028571,11.7798095 13.7011429,12.4550476 Z M5.93142857,1.41485714 L10.0685714,1.41485714 C10.4038095,1.41485714 10.675619,1.68666667 10.675619,2.02209524 C10.675619,2.35733333 10.4038095,2.62933333 10.0685714,2.62933333 L5.93142857,2.62933333 C5.59619048,2.62933333 5.32438095,2.35733333 5.32438095,2.02209524 C5.32438095,1.68647619 5.59619048,1.41485714 5.93142857,1.41485714 Z M2.80342857,8.73904762 C3.00171429,7.68590476 3.21809524,6.636 3.42819048,5.58495238 C3.488,5.28609524 3.54838095,4.98704762 3.61542857,4.68971429 C3.71580952,4.24647619 3.93809524,4.07809524 4.39714286,4.06152381 L11.6028571,4.06152381 C12.0617143,4.07809524 12.284,4.24647619 12.3845714,4.68971429 C12.4518095,4.9872381 12.512,5.28609524 12.5718095,5.58495238 C12.7820952,6.636 12.9982857,7.68571429 13.1965714,8.73904762 C13.3068571,9.3247619 13.0241905,9.88114286 12.4247619,9.88114286 L3.5752381,9.88114286 C2.97580952,9.88114286 2.69314286,9.3247619 2.80342857,8.73904762 Z M3.48228571,11.2537143 C4.13847619,11.2512381 4.66704762,11.7672381 4.6767619,12.420381 C4.68704762,13.0910476 4.16780952,13.6287619 3.50438095,13.6346667 C2.83085714,13.6409524 2.30057143,13.1220952 2.29885714,12.4550476 C2.29714286,11.7798095 2.8127619,11.256381 3.48228571,11.2537143 Z M10.564381,16.1034286 L11.1032381,16.6097143 L4.89695238,16.6097143 L5.4567619,16.1034286 L3.65904762,16.1034286 L0.832571429,18.6331429 L2.63619048,18.6331429 L3.55295238,17.8125714 L12.4468571,17.8125714 L13.363619,18.6331429 L15.1672381,18.6331429 L12.3411429,16.1034286 L10.564381,16.1034286 Z" id="Shape"></path>
                        </g>
                    </g>
                </g>
            </g>
        </g>
    </g>
</svg>