<?xml version="1.0" encoding="UTF-8"?>
<svg width="300px" height="30px" viewBox="0 0 300 30" version="1.1" xmlns="http://www.w3.org/2000/svg" xmlns:xlink="http://www.w3.org/1999/xlink">
    <!-- Generator: Sketch 54.1 (76490) - https://sketchapp.com -->
    <title>Group 6</title>
    <desc>Created with Sketch.</desc>
    <g id="App-flow" stroke="none" stroke-width="1" fill="none" fill-rule="evenodd">
        <g id="Artboard" transform="translate(-31.000000, -244.000000)">
            <g id="Group-7">
                <g id="Group-4" transform="translate(13.000000, 194.000000)">
                    <g id="Group-6" transform="translate(18.000000, 50.000000)">
                        <rect id="Rectangle" fill="#8E95A0" x="0" y="0" width="300" height="30" rx="15"></rect>
                        <path d="M24.8349495,5 C23.7483872,5 22.8646168,5.88369286 22.8646168,6.97027143 C22.8649168,8.06362143 23.7486784,8.94054286 24.8349495,8.94054286 C25.9282937,8.94054286 26.8144271,8.06362143 26.8144271,6.97027143 C26.8144271,5.88369286 25.9282937,5 24.8349495,5 Z M24.5415351,9.51986429 L24.2169887,9.51986429 L24.5493347,9.51986429 C24.5467347,9.51985118 24.5441347,9.51985118 24.5415347,9.51986429 L24.5415351,9.51986429 Z M24.2135301,9.51986429 L23.6935502,9.52200714 C23.6935502,9.52200714 23.6935502,9.52200714 23.6935502,9.52200714 C23.037441,9.52200714 22.3003221,9.69575 21.7545898,9.98803571 L21.7567519,9.98803571 C20.5743195,10.6415857 19.790295,11.2311071 19.29834,12.0487786 C18.7150688,13.0182286 18.6612585,14.1161643 18.6657767,15.6258521 C18.6625639,15.9048488 18.8098642,16.1639507 19.051246,16.3038946 C19.2926278,16.4438384 19.590672,16.44293 19.8311963,16.3015174 C20.0717205,16.1601048 20.2174387,15.9001097 20.2125253,15.6211379 C20.2081538,14.1614879 20.2928207,13.3960571 20.6236776,12.8461357 C20.8764581,12.4260071 21.3451523,12.0188 22.2254854,11.5030786 L21.5145302,14.901845 L21.4546043,15.188345 C21.4545953,15.1883664 21.4546103,15.188345 21.4546043,15.188345 C21.3638466,15.6223593 21.4244059,15.9502807 21.6666878,16.3258164 L23.0114372,18.4101307 L23.3920397,18.999995 L26.467242,23.7663736 C26.6784309,24.1044212 27.0553191,24.3025228 27.4535179,24.2847842 C27.8517168,24.2670456 28.2094973,24.0362166 28.3897913,23.6807295 C28.5700853,23.3252424 28.5449434,22.9002051 28.3239977,22.5684521 L24.1955239,16.1696021 L24.5718484,14.5988236 L24.8473761,13.4489214 L25.4218871,11.0511929 C25.4218871,11.0511929 25.4218871,11.0511929 25.4221871,11.0511929 C25.6114661,10.2561286 24.9694099,9.52205 24.213942,9.52155714 L24.213642,9.52155714 L24.2135301,9.51986429 Z M25.8230175,11.9526071 L25.320627,14.0494143 C25.3445151,14.0741857 25.3687005,14.0987214 25.3933361,14.1228714 C26.2009483,14.9152164 27.2563693,15.2223307 28.7258908,15.5683164 C28.9964518,15.6360237 29.2825111,15.5528235 29.4745537,15.3505681 C29.6665963,15.1483128 29.7348763,14.85833 29.6532535,14.5916368 C29.5716307,14.3249435 29.3527478,14.1228484 29.0804018,14.0627214 C27.6595751,13.7282214 26.9346778,13.4681643 26.476569,13.0187214 C26.237091,12.7837571 26.0270642,12.4509286 25.8230175,11.9526071 L25.8230175,11.9526071 Z M21.1518137,16.6345379 L20.4645454,19.9203093 L18.2799587,22.4432664 C18.0148804,22.7407934 17.9305372,23.1580014 18.0592258,23.5351327 C18.1879144,23.912264 18.509697,24.1908896 18.9013565,24.2643178 C19.2930159,24.337746 19.693872,24.1946006 19.9504288,23.889695 L22.3276926,21.1442664 C22.4539133,20.998485 22.5397853,20.8222096 22.5767743,20.6329593 L22.8452678,19.259195 L21.1518137,16.6345379 L21.1518137,16.6345379 Z" id="Shape" fill="#FFFFFF" fill-rule="nonzero"></path>
                        <path d="M56,0 L300,0 L300,30 L56,30 C47.7157288,30 41,23.2842712 41,15 L41,15 C41,6.71572875 47.7157288,1.52179594e-15 56,0 Z" id="Rectangle" fill="#FF4A56" transform="translate(170.500000, 15.000000) scale(-1, 1) translate(-170.500000, -15.000000) "></path>
                        <g id="iconfinder_aiga_bus_134180" transform="translate(164.000000, 6.000000)">
                            <path d="M7.55212079,-4.26325641e-14 L7.40675562,-4.26325641e-14 C9.10289326,-4.26325641e-14 11.4453371,0.484634831 12.4146067,0.888497191 C13.3838764,1.29235955 14.0300562,1.69622191 14.2319663,2.70585674 L14.9588764,8.30308989 L14.9588764,16.0156601 L13.7069663,16.0156601 L13.7069663,17.2251404 C13.7069663,18.6998596 11.5489045,18.6998596 11.5489045,17.2251404 L11.5489045,16.0156601 L7.40675562,16.0156601 L7.39411517,16.0156601 L3.40997191,16.0156601 L3.40997191,17.2251404 C3.40997191,18.6998596 1.25191011,18.6998596 1.25191011,17.2251404 L1.25191011,16.0156601 L1.75859327e-13,16.0156601 L1.75859327e-13,8.30308989 L0.726910112,2.70585674 C0.928820225,1.69622191 1.575,1.29235955 2.54426966,0.888497191 C3.51353933,0.484634831 5.85598315,-4.26325641e-14 7.55212079,-4.26325641e-14 Z M12.6270506,13.5978792 C13.198736,13.5978792 13.6622191,13.1343118 13.6622191,12.5626264 C13.6622191,11.990941 13.198736,11.5273736 12.6270506,11.5273736 C12.0553652,11.5273736 11.5918399,11.990941 11.5918399,12.5626264 C11.5918399,13.1343118 12.0553652,13.5978792 12.6270506,13.5978792 Z M2.33182584,13.5978792 C2.90351124,13.5978792 3.36703652,13.1343118 3.36703652,12.5626264 C3.36703652,11.990941 2.90351124,11.5273736 2.33182584,11.5273736 C1.76014045,11.5273736 1.2966573,11.990941 1.2966573,12.5626264 C1.2966573,13.1343118 1.76014045,13.5978792 2.33182584,13.5978792 Z M7.39938202,2.32217697 L10.5567978,2.32217697 C11.1626124,2.32217697 11.1626124,1.41349719 10.5567978,1.41349719 L7.40675562,1.41349719 L4.40207865,1.41349719 C3.79626404,1.41349719 3.79626404,2.32217697 4.40207865,2.32217697 L7.39938202,2.32217697 Z M7.39938202,3.23962079 L2.76889045,3.23962079 C2.12894663,3.23962079 1.96175562,3.56477528 1.88405899,4.05800562 L1.31827247,8.11761236 C1.26551966,8.50672753 1.3780618,8.89297753 1.91566011,8.89297753 L7.40675562,8.89297753 L13.0432163,8.89297753 C13.5808146,8.89297753 13.6933567,8.50672753 13.6406039,8.11761236 L13.0748174,4.05800562 C12.9971208,3.56477528 12.8299298,3.23962079 12.189986,3.23962079 L7.39938202,3.23962079 Z" id="Combined-Shape" fill="#FFFFFF" fill-rule="nonzero"></path>
                            <g id="g2117" transform="translate(1.264045, 1.390449)"></g>
                        </g>
                    </g>
                </g>
            </g>
        </g>
    </g>
</svg>