<?xml version="1.0" encoding="UTF-8"?>
<svg width="300px" height="30px" viewBox="0 0 300 30" version="1.1" xmlns="http://www.w3.org/2000/svg" xmlns:xlink="http://www.w3.org/1999/xlink">
    <!-- Generator: Sketch 54.1 (76490) - https://sketchapp.com -->
    <title>Group 5</title>
    <desc>Created with Sketch.</desc>
    <defs>
        <linearGradient x1="45.7978754%" y1="41.613647%" x2="50%" y2="59.8035141%" id="linearGradient-1">
            <stop stop-color="#61B72F" offset="0%"></stop>
            <stop stop-color="#25A624" offset="100%"></stop>
        </linearGradient>
    </defs>
    <g id="App-flow" stroke="none" stroke-width="1" fill="none" fill-rule="evenodd">
        <g id="Artboard" transform="translate(-30.000000, -468.000000)">
            <g id="Group-7">
                <g id="Group-4" transform="translate(13.000000, 418.000000)">
                    <g id="Group-5" transform="translate(17.000000, 50.000000)">
                        <rect id="Rectangle" fill="#8E95A0" x="0" y="0" width="300" height="30" rx="15"></rect>
                        <path d="M279.834949,5 C278.748387,5 277.864617,5.88369286 277.864617,6.97027143 C277.864917,8.06362143 278.748678,8.94054286 279.834949,8.94054286 C280.928294,8.94054286 281.814427,8.06362143 281.814427,6.97027143 C281.814427,5.88369286 280.928294,5 279.834949,5 Z M279.541535,9.51986429 L279.216989,9.51986429 L279.549335,9.51986429 C279.546735,9.51985118 279.544135,9.51985118 279.541535,9.51986429 L279.541535,9.51986429 Z M279.21353,9.51986429 L278.69355,9.52200714 C278.69355,9.52200714 278.69355,9.52200714 278.69355,9.52200714 C278.037441,9.52200714 277.300322,9.69575 276.75459,9.98803571 L276.756752,9.98803571 C275.574319,10.6415857 274.790295,11.2311071 274.29834,12.0487786 C273.715069,13.0182286 273.661258,14.1161643 273.665777,15.6258521 C273.662564,15.9048488 273.809864,16.1639507 274.051246,16.3038946 C274.292628,16.4438384 274.590672,16.44293 274.831196,16.3015174 C275.071721,16.1601048 275.217439,15.9001097 275.212525,15.6211379 C275.208154,14.1614879 275.292821,13.3960571 275.623678,12.8461357 C275.876458,12.4260071 276.345152,12.0188 277.225485,11.5030786 L276.51453,14.901845 L276.454604,15.188345 C276.454595,15.1883664 276.45461,15.188345 276.454604,15.188345 C276.363847,15.6223593 276.424406,15.9502807 276.666688,16.3258164 L278.011437,18.4101307 L278.39204,18.999995 L281.467242,23.7663736 C281.678431,24.1044212 282.055319,24.3025228 282.453518,24.2847842 C282.851717,24.2670456 283.209497,24.0362166 283.389791,23.6807295 C283.570085,23.3252424 283.544943,22.9002051 283.323998,22.5684521 L279.195524,16.1696021 L279.571848,14.5988236 L279.847376,13.4489214 L280.421887,11.0511929 C280.421887,11.0511929 280.421887,11.0511929 280.422187,11.0511929 C280.611466,10.2561286 279.96941,9.52205 279.213942,9.52155714 L279.213642,9.52155714 L279.21353,9.51986429 Z M280.823017,11.9526071 L280.320627,14.0494143 C280.344515,14.0741857 280.3687,14.0987214 280.393336,14.1228714 C281.200948,14.9152164 282.256369,15.2223307 283.725891,15.5683164 C283.996452,15.6360237 284.282511,15.5528235 284.474554,15.3505681 C284.666596,15.1483128 284.734876,14.85833 284.653254,14.5916368 C284.571631,14.3249435 284.352748,14.1228484 284.080402,14.0627214 C282.659575,13.7282214 281.934678,13.4681643 281.476569,13.0187214 C281.237091,12.7837571 281.027064,12.4509286 280.823017,11.9526071 L280.823017,11.9526071 Z M276.151814,16.6345379 L275.464545,19.9203093 L273.279959,22.4432664 C273.01488,22.7407934 272.930537,23.1580014 273.059226,23.5351327 C273.187914,23.912264 273.509697,24.1908896 273.901356,24.2643178 C274.293016,24.337746 274.693872,24.1946006 274.950429,23.889695 L277.327693,21.1442664 C277.453913,20.998485 277.539785,20.8222096 277.576774,20.6329593 L277.845268,19.259195 L276.151814,16.6345379 L276.151814,16.6345379 Z" id="Shape" fill="#FFFFFF" fill-rule="nonzero"></path>
                        <path d="M15,0 L100,0 L100,30 L15,30 C6.71572875,30 1.01453063e-15,23.2842712 0,15 L0,15 C-1.01453063e-15,6.71572875 6.71572875,1.52179594e-15 15,0 Z" id="Rectangle" fill="url(#linearGradient-1)"></path>
                        <rect id="Rectangle" fill="#F7B500" x="100" y="0" width="160" height="30" rx="15"></rect>
                        <g id="noun_Subway_809354" transform="translate(172.000000, 6.000000)" fill="#FFFFFF" fill-rule="nonzero">
                            <path d="M3.62152381,15.5053333 C5.08095238,15.5078095 6.54057143,15.5059048 8,15.5060952 C9.45942857,15.5059048 10.9190476,15.5078095 12.3784762,15.5053333 C14.6342857,15.5013333 16.188381,13.5881905 15.7620952,11.3685714 C15.1815238,8.34647619 14.6158095,5.32152381 14.0489524,2.29695238 C13.804381,0.991809524 12.7325714,0.0411428571 11.4100952,0.0335238095 L4.58990476,0.0335238095 C3.26761905,0.0411428571 2.19580952,0.991809524 1.95104762,2.29714286 C1.384,5.32171429 0.81847619,8.34666667 0.237904762,11.3687619 C-0.188380952,13.5881905 1.36571429,15.5015238 3.62152381,15.5053333 Z M13.7011429,12.4550476 C13.6994286,13.1220952 13.1691429,13.6411429 12.495619,13.6346667 C11.8321905,13.6287619 11.3129524,13.0910476 11.3232381,12.420381 C11.3331429,11.7672381 11.8615238,11.2512381 12.5177143,11.2537143 C13.1872381,11.256381 13.7028571,11.7798095 13.7011429,12.4550476 Z M5.93142857,1.41485714 L10.0685714,1.41485714 C10.4038095,1.41485714 10.675619,1.68666667 10.675619,2.02209524 C10.675619,2.35733333 10.4038095,2.62933333 10.0685714,2.62933333 L5.93142857,2.62933333 C5.59619048,2.62933333 5.32438095,2.35733333 5.32438095,2.02209524 C5.32438095,1.68647619 5.59619048,1.41485714 5.93142857,1.41485714 Z M2.80342857,8.73904762 C3.00171429,7.68590476 3.21809524,6.636 3.42819048,5.58495238 C3.488,5.28609524 3.54838095,4.98704762 3.61542857,4.68971429 C3.71580952,4.24647619 3.93809524,4.07809524 4.39714286,4.06152381 L11.6028571,4.06152381 C12.0617143,4.07809524 12.284,4.24647619 12.3845714,4.68971429 C12.4518095,4.9872381 12.512,5.28609524 12.5718095,5.58495238 C12.7820952,6.636 12.9982857,7.68571429 13.1965714,8.73904762 C13.3068571,9.3247619 13.0241905,9.88114286 12.4247619,9.88114286 L3.5752381,9.88114286 C2.97580952,9.88114286 2.69314286,9.3247619 2.80342857,8.73904762 Z M3.48228571,11.2537143 C4.13847619,11.2512381 4.66704762,11.7672381 4.6767619,12.420381 C4.68704762,13.0910476 4.16780952,13.6287619 3.50438095,13.6346667 C2.83085714,13.6409524 2.30057143,13.1220952 2.29885714,12.4550476 C2.29714286,11.7798095 2.8127619,11.256381 3.48228571,11.2537143 Z M10.564381,16.1034286 L11.1032381,16.6097143 L4.89695238,16.6097143 L5.4567619,16.1034286 L3.65904762,16.1034286 L0.832571429,18.6331429 L2.63619048,18.6331429 L3.55295238,17.8125714 L12.4468571,17.8125714 L13.363619,18.6331429 L15.1672381,18.6331429 L12.3411429,16.1034286 L10.564381,16.1034286 Z" id="Shape"></path>
                        </g>
                        <g id="noun_Auto-Rickshaw_21865" transform="translate(50.500000, 15.500000) scale(-1, 1) translate(-50.500000, -15.500000) translate(38.000000, 7.000000)" fill="#FFFFFF" fill-rule="nonzero">
                            <g id="Group">
                                <circle id="Oval" cx="2.04775" cy="14.83875" r="1.9785"></circle>
                                <circle id="Oval" cx="21.25175" cy="14.83875" r="1.9785"></circle>
                                <path d="M18.422,0.1625 C12.172,0.1625 6.41875,0.26225 5.72425,1.25425 C5.02975,2.246 2.818,5.519 2.88225,7.8505 L2.88225,9.68625 C2.88225,9.68625 0.89025,9.7015 1.161,11.33 C1.161,11.33 5.4265,12.05575 5.22825,14.83925 L18.32225,14.83925 C18.32225,14.83925 19.0225,12.06675 21.25175,12.06675 C23.481,12.06675 24.076,13.702 24.076,13.702 L24.076,4.188 C24.076,4.188 24.67175,0.1625 18.422,0.1625 Z M6.71575,9.02125 L4.02575,9.02125 L3.4425,9.02125 C3.236,5.79125 6.04,2.147 6.04,2.147 L6.71575,2.147 L6.71575,9.02125 L6.71575,9.02125 Z M19.54175,9.756 C18.777,9.756 18.71925,10.5785 18.71925,10.5785 L17.43,13.59775 C14.3625,14.18525 14.25525,12.8605 14.25525,12.8605 L14.25525,10.60725 C14.269,10.54925 14.278,10.4885 14.278,10.42675 L14.278,6.703 C14.278,6.25975 13.91825,5.9005 13.475,5.9005 C13.03175,5.9005 12.672,6.26 12.672,6.703 L12.672,9.259 C12.6245,9.3815 12.596,9.50625 12.584,9.6235 L10.83075,9.6235 C10.38725,9.6235 10.028,9.983 10.028,10.42675 C10.028,10.8695 10.3875,11.2295 10.83075,11.2295 L12.61325,11.2295 L12.61325,13.70225 L8.0055,13.70225 L8.0055,2.246 L19.54175,2.246 L19.54175,9.756 Z" id="Shape"></path>
                            </g>
                        </g>
                    </g>
                </g>
            </g>
        </g>
    </g>
</svg>